Coordinates
version=1
nRows=30
nColumns=19
inDegrees=yes

Units are S.I. units (second, meters, Newtons, ...)
If the header above contains a line with 'inDegrees', this indicates whether rotational values are in degrees (yes) or radians (no).

endheader
time	pelvis_tilt	pelvis_list	pelvis_rotation	pelvis_tx	pelvis_ty	pelvis_tz	hip_flexion_r	hip_adduction_r	hip_rotation_r	knee_angle_r	knee_angle_r_beta	ankle_angle_r	hip_flexion_l	hip_adduction_l	hip_rotation_l	knee_angle_l	knee_angle_l_beta	ankle_angle_l
     13.42000000	     -1.69892026	      8.91599083	      0.33991969	      2.41709139	      1.03366457	      1.00403026	    -12.52943118	    -14.08005951	     -9.18375681	     70.48624708	      1.23021709	    -14.99567543	     24.17209563	     12.45517943	    -11.30871601	     14.45930499	      0.25236248	      6.17563070
     13.42666667	     -1.52271364	      9.24490465	      0.70156613	      2.41529367	      1.02852789	      1.00418826	    -11.20974264	    -13.94976572	     -7.80567075	     74.30056913	      1.29678957	    -14.60919918	     24.61483666	     12.59871352	    -12.00462411	     17.60505941	      0.30726625	      5.85097810
     13.43333333	     -1.44164018	      9.48290281	      1.10518511	      2.41332169	      1.02304063	      1.00452608	     -9.72100560	    -13.69210300	     -6.53858151	     78.04868951	      1.36220661	    -14.21175771	     25.20326893	     12.60434943	    -12.53881562	     21.00081675	      0.36653340	      5.68770517
     13.44000000	     -1.47259070	      9.63587922	      1.55722242	      2.41116230	      1.01724631	      1.00498631	     -8.04435086	    -13.35432186	     -5.41893147	     81.72235417	      1.42632415	    -13.77868222	     25.92413580	     12.51189366	    -12.86275475	     24.54758284	      0.42843614	      5.79245715
     13.44666667	     -1.58189917	      9.70415179	      2.03497868	      2.40880234	      1.01127975	      1.00553675	     -6.20583603	    -12.96313821	     -4.43300214	     85.29829000	      1.48873601	    -13.30167098	     26.70586577	     12.34702510	    -12.97199382	     28.14340088	      0.49119501	      6.24228843
     13.45333333	     -1.76592736	      9.70907111	      2.54199668	      2.40625841	      1.00524822	      1.00612827	     -4.21212417	    -12.57061898	     -3.59667694	     88.75418414	      1.54905274	    -12.74232520	     27.50254494	     12.16473258	    -12.85613627	     31.68386797	      0.55298782	      7.05653152
     13.46000000	     -1.98566541	      9.64260211	      3.07751390	      2.40351519	      0.99929624	      1.00669179	     -2.09560497	    -12.17946013	     -2.89830663	     92.06139903	      1.60677453	    -12.18220662	     28.23933196	     11.98386130	    -12.51801594	     35.09429263	      0.61251096	      8.27498149
     13.46666667	     -2.27739391	      9.59341262	      3.57800127	      2.40061507	      0.99350850	      1.00730000	      0.20319279	    -11.90155778	     -2.24886147	     95.22722821	      1.66202867	    -11.52593295	     28.90381420	     11.86653342	    -12.09317920	     38.24686460	      0.66753372	      9.77780236
     13.47333333	     -2.60453872	      9.54313768	      4.03596885	      2.39759425	      0.98805211	      1.00787565	      2.64229795	    -11.71961597	     -1.64140829	     98.20330993	      1.71397109	    -10.82455887	     29.42298622	     11.80492596	    -11.58071491	     41.08369600	      0.71704576	     11.52460341
     13.48000000	     -2.85402105	      9.42998018	      4.47157622	      2.39446403	      0.98315855	      1.00841288	      5.08564881	    -11.52742521	     -1.08940030	    100.93193051	      1.76159451	    -10.10768227	     29.66770539	     11.73454887	    -10.95967498	     43.60777853	      0.76109931	     13.46723041
     13.48666667	     -3.11931058	      9.34431071	      4.83128348	      2.39130907	      0.97876589	      1.00891928	      7.64748494	    -11.44716037	     -0.52076083	    103.42622306	      1.80512813	     -9.40422863	     29.70066633	     11.71249292	    -10.34722553	     45.73201119	      0.79817417	     15.49203831
     13.49333333	     -3.31133962	      9.27431763	      5.10790727	      2.38826287	      0.97513927	      1.00943138	     10.19967138	    -11.41133173	      0.07607477	    105.61215854	      1.84327990	     -8.70282873	     29.40509943	     11.71161024	     -9.75181264	     47.42694578	      0.82775636	     17.49733492
     13.50000000	     -3.40905232	      9.18032438	      5.32412331	      2.38532057	      0.97224286	      1.00984970	     12.69716964	    -11.40349861	      0.63375230	    107.47385104	      1.87577256	     -8.01837198	     28.78400910	     11.68345139	     -9.17450181	     48.73915522	      0.85065873	     19.44115278
     13.50666667	     -3.45385362	      9.08191237	      5.45727801	      2.38259075	      0.97016544	      1.01023097	     15.17967179	    -11.38548332	      1.21952906	    108.99042743	      1.90224181	     -7.35485802	     27.85953473	     11.64064439	     -8.61846957	     49.62196371	      0.86606665	     21.23113155
     13.51333333	     -3.32218311	      8.96980930	      5.50860611	      2.38024931	      0.96899803	      1.01056645	     17.43151699	    -11.37517363	      1.72079137	    110.11237520	      1.92182349	     -6.67051987	     26.51694269	     11.56188021	     -8.09672021	     50.11209224	      0.87462100	     22.82811015
     13.52000000	     -3.05023339	      8.80338327	      5.59678048	      2.37829786	      0.96879210	      1.01068614	     19.44073266	    -11.34084261	      2.04307567	    110.81025117	      1.93400373	     -6.02556736	     24.78665634	     11.46314220	     -7.46291419	     50.21067048	      0.87634152	     24.23759922
     13.52666667	     -2.87078124	      8.55296042	      5.59168406	      2.37664801	      0.96923885	      1.01077985	     21.52538378	    -11.19123342	      2.34859911	    111.14691581	      1.93987963	     -5.36876758	     22.99274519	     11.26458302	     -6.85837488	     49.98130779	      0.87233839	     25.35509719
     13.53333333	     -2.78571816	      8.23935939	      5.53265196	      2.37544216	      0.97017828	      1.01087228	     23.63396224	    -10.97086162	      2.57557267	    111.13351872	      1.93964581	     -4.71906754	     21.14542018	     10.94792560	     -6.39219704	     49.47637197	      0.86352559	     26.23438121
     13.54000000	     -2.79662160	      7.84404095	      5.40419603	      2.37474847	      0.97171393	      1.01087713	     25.73527103	    -10.65903140	      2.72467850	    110.74173149	      1.93280783	     -4.06002288	     19.24525097	     10.54970039	     -5.94791405	     48.67284530	      0.84950141	     26.88200979
     13.54666667	     -2.89987191	      7.39101204	      5.25435253	      2.37439881	      0.97371664	      1.01089674	     27.80960966	    -10.30531748	      2.72066898	    110.00373190	      1.91992731	     -3.42070506	     17.34273808	     10.07597339	     -5.56769222	     47.66030789	      0.83182930	     27.25098255
     13.55333333	     -2.31062933	      6.89872016	      4.63826187	      2.37450695	      0.97718178	      1.01147722	     29.02464445	     -9.56659622	      2.93579696	    108.86246100	      1.90000838	     -2.71757167	     14.52482160	      9.40270395	     -5.53139767	     46.25053558	      0.80722413	     27.44891682
     13.56000000	     -2.07338303	      6.26240834	      4.41268973	      2.37508110	      0.98083830	      1.01157183	     30.32550338	     -8.97162835	      2.57986870	    107.35780763	      1.87374722	     -2.03050409	     12.00406807	      8.72975150	     -5.11162157	     44.71553856	      0.78043337	     27.28631268
     13.56666667	     -2.58793697	      5.61023996	      4.24116910	      2.37587523	      0.98399954	      1.01157259	     32.34150100	     -8.35920422	      2.23205305	    105.64074010	      1.84377874	     -1.38407994	     10.28777063	      8.12999379	     -4.65061462	     43.11559770	      0.75250914	     26.73657388
     13.57333333	     -2.00307002	      4.76156030	      3.78126723	      2.37722862	      0.98899261	      1.01200325	     32.90489331	     -7.45046817	      1.66102359	    103.46707527	      1.80584113	     -0.71329852	      7.24612910	      7.12642952	     -4.58443977	     41.19012891	      0.71890337	     25.87408275
     13.58000000	     -1.95936122	      3.97413542	      3.52612970	      2.37884617	      0.99370422	      1.01217828	     33.86787188	     -6.72546636	      0.95520416	    101.06797350	      1.76396891	     -0.05024054	      4.77213951	      6.30061347	     -4.30526025	     39.18027237	      0.68382475	     24.54330011
     13.58666667	     -2.04790249	      3.12674996	      3.17315071	      2.38071195	      0.99852303	      1.01256729	     34.82794050	     -5.86737356	      0.24309689	     98.41131628	      1.71760149	      0.55978067	      2.45064674	      5.38346700	     -4.26770765	     37.11234559	      0.64773262	     22.78810589
     13.59333333	     -2.19521388	      2.26576179	      2.76276147	      2.38284057	      1.00349006	      1.01306771	     35.68195559	     -4.96298701	     -0.49733021	     95.50120433	      1.66681046	      1.14326438	      0.20159477	      4.44243851	     -4.42980471	     34.98382614	      0.61058295	     20.57719209
     13.60000000	     -3.38326746	      1.55936100	      2.56869664	      2.38505543	      1.00715451	      1.01331091	     37.55326591	     -4.46670678	     -1.42442688	     92.50777215	      1.61456521	      1.72307454	     -0.74974813	      3.69173281	     -4.59586569	     33.13809491	      0.57836886	     18.04198517
     13.60666667	     -2.56516404	      0.63048114	      1.85597194	      2.38772383	      1.01376676	      1.01424330	     36.95060464	     -3.23426548	     -2.09750410	     88.95690628	      1.55259091	      2.22161063	     -4.12538973	      2.65943771	     -5.31832353	     30.63239329	      0.53463612	     14.77950230
     13.61333333	     -2.66078201	     -0.10558679	      1.50813696	      2.39042217	      1.01915540	      1.01466757	     37.19814840	     -2.55244034	     -3.07153968	     85.32488166	      1.48920012	      2.72238881	     -6.29935550	      1.87380684	     -5.85368015	     28.45714797	      0.49667093	     11.23855358
